<svg xmlns="http://www.w3.org/2000/svg" xmlns:xlink="http://www.w3.org/1999/xlink" width="500" zoomAndPan="magnify" viewBox="0 0 375 374.999991" height="500" preserveAspectRatio="xMidYMid meet" version="1.0"><defs><clipPath id="1ede4df5a2"><path d="M 9 9 L 366 9 L 366 366 L 9 366 Z M 9 9 " clip-rule="nonzero"/></clipPath><clipPath id="a94e8cc38b"><path d="M -64.304688 187.496094 L 187.605469 -64.410156 L 439.511719 187.496094 L 187.605469 439.402344 Z M -64.304688 187.496094 " clip-rule="nonzero"/></clipPath><clipPath id="4144eaedda"><path d="M -64.304688 187.496094 L 187.605469 -64.410156 L 439.511719 187.496094 L 187.605469 439.402344 Z M -64.304688 187.496094 " clip-rule="nonzero"/></clipPath><clipPath id="b22da21196"><path d="M 80 36 L 339 36 L 339 295 L 80 295 Z M 80 36 " clip-rule="nonzero"/></clipPath><clipPath id="fea19da8a9"><path d="M -64.304688 187.496094 L 187.605469 -64.410156 L 439.511719 187.496094 L 187.605469 439.402344 Z M -64.304688 187.496094 " clip-rule="nonzero"/></clipPath><clipPath id="4d7c6b1a74"><path d="M -64.304688 187.496094 L 187.605469 -64.410156 L 439.511719 187.496094 L 187.605469 439.402344 Z M -64.304688 187.496094 " clip-rule="nonzero"/></clipPath></defs><g clip-path="url(#1ede4df5a2)"><g clip-path="url(#a94e8cc38b)"><g clip-path="url(#4144eaedda)"><path fill="#049b6a" d="M 61.597656 61.597656 C -7.9375 131.132812 -7.9375 243.859375 61.597656 313.394531 C 131.132812 382.929688 243.859375 382.929688 313.394531 313.394531 C 382.929688 243.859375 382.929688 131.132812 313.394531 61.597656 C 243.859375 -7.9375 131.132812 -7.9375 61.597656 61.597656 Z M 303.710938 303.710938 C 239.628906 367.792969 135.363281 367.792969 71.28125 303.710938 C 7.199219 239.628906 7.199219 135.363281 71.28125 71.28125 C 135.363281 7.199219 239.628906 7.199219 303.710938 71.28125 C 367.792969 135.363281 367.792969 239.628906 303.710938 303.710938 Z M 303.710938 303.710938 " fill-opacity="1" fill-rule="nonzero"/></g></g></g><g clip-path="url(#b22da21196)"><g clip-path="url(#fea19da8a9)"><g clip-path="url(#4d7c6b1a74)"><path fill="#049b6a" d="M 80.964844 80.964844 L 294.027344 294.027344 C 352.761719 235.289062 352.761719 139.703125 294.027344 80.964844 C 235.289062 22.230469 139.703125 22.230469 80.964844 80.964844 Z M 80.964844 80.964844 " fill-opacity="1" fill-rule="nonzero"/></g></g></g></svg>